<?xml version="1.0" encoding="UTF-8"?>
<svg xmlns="http://www.w3.org/2000/svg" xmlns:xlink="http://www.w3.org/1999/xlink" width="193pt" height="193pt" viewBox="0 0 193 193" version="1.1">
<g id="surface1">
<path style=" stroke:none;fill-rule:evenodd;fill:rgb(100%,100%,100%);fill-opacity:1;" d="M 0 0.242188 L 192.757813 0.242188 L 192.757813 193 L 0 193 L 0 0.242188 "/>
<path style=" stroke:none;fill-rule:evenodd;fill:rgb(0%,44.699097%,71.398926%);fill-opacity:1;" d="M 36.246094 16.503906 L 36.246094 120.9375 L 95.339844 120.9375 L 95.339844 86.511719 L 84.292969 92.984375 C 85.371094 96.257813 84.066406 99.949219 80.972656 101.761719 C 77.410156 103.847656 72.839844 102.652344 70.753906 99.09375 C 68.667969 95.535156 69.863281 90.957031 73.421875 88.875 C 76.464844 87.089844 80.257813 87.703125 82.59375 90.152344 L 93.769531 83.601563 L 82.640625 77.210938 C 80.332031 79.773438 76.480469 80.472656 73.375 78.6875 C 69.796875 76.636719 68.558594 72.070313 70.609375 68.496094 C 72.664063 64.914063 77.234375 63.671875 80.8125 65.730469 C 83.871094 67.488281 85.214844 71.078125 84.257813 74.320313 L 95.339844 80.679688 L 95.339844 67.90625 C 92.050781 67.121094 89.597656 64.171875 89.597656 60.640625 C 89.597656 56.515625 92.941406 53.171875 97.070313 53.171875 C 101.195313 53.171875 104.539063 56.515625 104.539063 60.640625 C 104.539063 64.222656 102.015625 67.21875 98.644531 67.9375 L 98.644531 80.742188 L 109.792969 74.207031 C 108.808594 70.972656 110.117188 67.367188 113.164063 65.582031 C 116.722656 63.492188 121.300781 64.691406 123.386719 68.246094 C 125.476563 71.8125 124.277344 76.386719 120.71875 78.46875 C 117.625 80.28125 113.765625 79.617188 111.4375 77.074219 L 100.363281 83.566406 L 111.605469 90.019531 C 113.921875 87.550781 117.703125 86.898438 120.765625 88.65625 C 124.34375 90.707031 125.578125 95.277344 123.523438 98.851563 C 121.476563 102.433594 116.90625 103.667969 113.328125 101.613281 C 110.21875 99.828125 108.882813 96.148438 109.929688 92.867188 L 99.242188 86.730469 L 99.242188 120.9375 L 154.328125 120.9375 L 154.328125 16.503906 L 36.246094 16.503906 "/>
<path style=" stroke:none;fill-rule:evenodd;fill:rgb(0%,44.699097%,71.398926%);fill-opacity:1;" d="M 26.980469 170.238281 C 26.980469 168.679688 27.707031 167.902344 29.164063 167.902344 C 29.28125 167.902344 29.507813 167.9375 29.851563 168.011719 C 30.195313 168.085938 30.492188 168.222656 30.742188 168.4375 C 30.992188 168.640625 31.308594 168.929688 31.691406 169.304688 C 33.066406 170.539063 34.578125 171.402344 36.230469 171.890625 C 37.488281 172.230469 38.640625 172.398438 39.675781 172.398438 C 41.433594 172.398438 42.878906 172.039063 44.007813 171.335938 C 45.140625 170.625 45.855469 169.675781 46.164063 168.492188 C 46.316406 167.804688 46.394531 167.324219 46.394531 167.054688 C 46.394531 164.6875 44.839844 163.152344 41.734375 162.460938 L 39.492188 161.945313 L 38.570313 161.773438 L 36.84375 161.429688 C 33.816406 160.738281 31.601563 159.738281 30.203125 158.414063 C 28.804688 157.09375 28.105469 155.378906 28.105469 153.277344 C 28.105469 152.664063 28.164063 152.011719 28.277344 151.324219 C 28.625 149.21875 29.792969 147.457031 31.792969 146.042969 C 33.792969 144.625 36.246094 143.914063 39.167969 143.914063 C 39.480469 143.914063 39.804688 143.914063 40.152344 143.914063 C 40.609375 143.996094 41.035156 144.050781 41.417969 144.089844 C 41.800781 144.125 42.304688 144.226563 42.917969 144.378906 C 43.53125 144.53125 44.125 144.722656 44.707031 144.953125 C 46.664063 145.6875 48.085938 146.574219 48.96875 147.613281 C 49.734375 148.503906 50.023438 149.367188 49.832031 150.21875 C 49.53125 151.335938 48.839844 151.890625 47.746094 151.890625 C 47.449219 151.890625 47.21875 151.855469 47.066406 151.773438 L 46.394531 151.429688 L 45.410156 150.621094 C 44.753906 150.089844 44.15625 149.675781 43.617188 149.386719 C 43.078125 149.101563 42.476563 148.859375 41.824219 148.664063 C 41.746094 148.628906 41.574219 148.578125 41.300781 148.523438 C 41.035156 148.464844 40.746094 148.410156 40.4375 148.351563 C 40.128906 148.292969 39.628906 148.261719 38.933594 148.261719 C 38.085938 148.261719 37.3125 148.375 36.621094 148.609375 C 35.925781 148.835938 35.269531 149.183594 34.65625 149.644531 C 33.535156 150.519531 32.976563 151.59375 32.976563 152.855469 C 32.976563 154.234375 33.589844 155.269531 34.816406 155.957031 C 35.316406 156.265625 35.792969 156.484375 36.25 156.617188 C 36.710938 156.753906 37.578125 156.957031 38.839844 157.21875 L 40.332031 157.5625 L 42.058594 157.910156 C 47.992188 159.328125 50.964844 162.195313 50.964844 166.523438 C 50.964844 167.480469 50.828125 168.472656 50.558594 169.503906 C 50.023438 171.652344 48.761719 173.394531 46.765625 174.734375 C 44.769531 176.070313 42.277344 176.742188 39.289063 176.742188 C 38.484375 176.742188 37.527344 176.675781 36.414063 176.542969 C 35.300781 176.410156 34.132813 176.078125 32.902344 175.542969 C 30.871094 174.632813 29.378906 173.71875 28.417969 172.808594 C 27.460938 171.894531 26.980469 171.035156 26.980469 170.238281 "/>
<path style=" stroke:none;fill-rule:evenodd;fill:rgb(0%,44.699097%,71.398926%);fill-opacity:1;" d="M 55.640625 160.398438 L 55.742188 156.578125 C 55.847656 152.644531 57.023438 149.53125 59.269531 147.234375 C 61.519531 144.941406 64.265625 143.835938 67.519531 143.921875 C 68.519531 143.949219 69.40625 144.050781 70.1875 144.226563 C 70.964844 144.402344 71.847656 144.734375 72.835938 145.222656 C 74.578125 146.042969 75.90625 147.050781 76.839844 148.238281 C 77.652344 149.257813 78.046875 150.238281 78.023438 151.164063 C 78.019531 151.316406 77.976563 151.546875 77.890625 151.855469 C 77.558594 152.769531 76.890625 153.214844 75.894531 153.191406 C 75.664063 153.183594 75.410156 153.136719 75.121094 153.050781 C 74.839844 152.96875 74.523438 152.769531 74.191406 152.449219 L 73.292969 151.328125 L 72.628906 150.5 C 71.207031 149.03125 69.601563 148.273438 67.796875 148.222656 C 67.410156 148.21875 67.125 148.222656 66.929688 148.261719 C 64.816406 148.472656 63.195313 149.328125 62.082031 150.824219 C 60.96875 152.316406 60.371094 154.605469 60.285156 157.695313 C 60.148438 162.9375 60.527344 166.601563 61.433594 168.695313 C 62.339844 170.78125 64.011719 171.992188 66.457031 172.328125 C 66.648438 172.371094 66.960938 172.398438 67.378906 172.410156 C 67.917969 172.425781 68.515625 172.34375 69.171875 172.167969 C 70.367188 171.847656 71.285156 171.367188 71.914063 170.726563 C 72.546875 170.082031 73.191406 168.988281 73.847656 167.457031 L 74.21875 166.53125 C 74.339844 166.148438 74.609375 165.820313 75.019531 165.566406 C 75.429688 165.296875 75.824219 165.171875 76.210938 165.1875 C 76.972656 165.203125 77.523438 165.46875 77.855469 165.984375 C 78.191406 166.496094 78.347656 167.082031 78.324219 167.738281 C 78.308594 168.359375 78.171875 169.011719 77.90625 169.703125 C 77.636719 170.394531 77.207031 171.175781 76.609375 172.054688 C 74.464844 175.214844 71.492188 176.742188 67.675781 176.644531 C 63.410156 176.53125 60.300781 175.191406 58.347656 172.628906 C 56.390625 170.066406 55.492188 165.988281 55.640625 160.398438 "/>
<path style=" stroke:none;fill-rule:evenodd;fill:rgb(0%,44.699097%,71.398926%);fill-opacity:1;" d="M 107.703125 152.949219 L 107.703125 173.40625 C 107.703125 175.621094 106.976563 176.726563 105.527344 176.726563 C 104.1875 176.726563 103.46875 176.042969 103.355469 174.679688 L 103.355469 173.773438 L 103.125 174.019531 L 102.949219 174.191406 L 102.660156 174.429688 L 102.253906 174.722656 L 101.792969 175.078125 L 101.324219 175.371094 C 99.664063 176.273438 97.726563 176.726563 95.527344 176.726563 C 95.136719 176.726563 94.828125 176.726563 94.59375 176.726563 C 94.324219 176.726563 94.128906 176.726563 94.015625 176.726563 C 91.617188 176.457031 89.636719 175.6875 88.066406 174.425781 C 86.503906 173.164063 85.484375 171.539063 85.023438 169.558594 C 84.75 168.277344 84.617188 167.230469 84.617188 166.410156 C 84.617188 163.535156 85.675781 161.273438 87.796875 159.621094 C 89.917969 157.96875 92.90625 157.148438 96.761719 157.148438 L 102.433594 157.148438 C 103.050781 157.03125 103.355469 156.632813 103.355469 155.96875 L 103.355469 154.140625 C 103.355469 150.09375 101.378906 148.074219 97.414063 148.074219 C 97.109375 148.074219 96.78125 148.09375 96.4375 148.132813 C 96.089844 148.167969 95.820313 148.191406 95.628906 148.191406 C 94.515625 148.347656 93.621094 148.636719 92.945313 149.058594 C 92.273438 149.484375 91.457031 150.300781 90.496094 151.5 L 90.09375 152.019531 C 89.785156 152.410156 89.304688 152.679688 88.648438 152.832031 L 87.671875 152.832031 C 86.554688 152.523438 86 151.769531 86 150.570313 C 86 150.183594 86.136719 149.71875 86.398438 149.175781 C 86.859375 148.289063 87.746094 147.34375 89.054688 146.34375 C 90.542969 145.183594 92.445313 144.433594 94.753906 144.085938 C 95.519531 143.972656 96.246094 143.914063 96.9375 143.914063 C 97.707031 143.914063 98.4375 143.972656 99.128906 144.089844 C 102.042969 144.554688 104.199219 145.539063 105.601563 147.03125 C 107 148.53125 107.703125 150.503906 107.703125 152.949219 Z M 101.621094 161 C 100.671875 161.019531 100.753906 161 100.753906 161 L 96.929688 161 C 94.222656 161 92.28125 161.472656 91.105469 162.417969 C 89.929688 163.363281 89.335938 164.816406 89.335938 166.785156 C 89.335938 170.132813 91.210938 172.039063 94.957031 172.511719 C 95.222656 172.546875 95.632813 172.570313 96.175781 172.570313 C 96.710938 172.570313 97.121094 172.53125 97.390625 172.453125 C 101.367188 171.78125 103.355469 169.328125 103.355469 165.070313 L 103.355469 163.820313 C 103.515625 161.042969 102.734375 160.980469 101.621094 161 "/>
<path style=" stroke:none;fill-rule:evenodd;fill:rgb(0%,44.699097%,71.398926%);fill-opacity:1;" d="M 132.277344 143.710938 L 132.277344 136.238281 C 132.277344 134.851563 132.609375 133.921875 133.28125 133.457031 C 133.578125 133.226563 133.980469 133.113281 134.507813 133.113281 C 135.617188 133.113281 136.273438 133.59375 136.453125 134.566406 L 136.621094 136.011719 L 136.621094 173.472656 C 136.621094 175.5625 135.890625 176.613281 134.425781 176.613281 C 132.992188 176.613281 132.277344 175.644531 132.277344 173.710938 L 132.277344 173.128906 C 131.621094 174.175781 130.664063 175.015625 129.398438 175.652344 C 128.128906 176.289063 126.632813 176.613281 124.90625 176.613281 C 124.140625 176.613281 123.222656 176.511719 122.144531 176.320313 C 118.882813 175.667969 116.574219 173.953125 115.210938 171.183594 C 113.84375 168.421875 113.164063 164.0625 113.164063 158.101563 C 113.164063 153.964844 113.894531 150.789063 115.367188 148.585938 C 116.714844 146.574219 118.820313 145.179688 121.679688 144.414063 C 122.644531 144.140625 123.6875 144.003906 124.804688 144.003906 C 125.386719 144.003906 126.097656 144.070313 126.945313 144.207031 C 127.796875 144.339844 128.648438 144.609375 129.5 145.011719 C 130.347656 145.414063 132.148438 145.644531 132.277344 143.710938 Z M 117.734375 160.53125 C 117.734375 164.789063 118.371094 167.867188 119.644531 169.761719 C 120.796875 171.507813 122.621094 172.375 125.125 172.375 C 127.546875 172.375 129.34375 171.597656 130.515625 170.054688 C 131.691406 168.503906 132.277344 166.007813 132.277344 162.5625 C 132.277344 161.90625 132.277344 161.234375 132.277344 160.53125 C 132.277344 159.835938 132.277344 159.140625 132.277344 158.441406 C 132.273438 158.167969 132.273438 157.976563 132.277344 157.859375 C 132.277344 154.570313 131.828125 152.238281 130.941406 150.867188 C 130.046875 149.492188 128.519531 148.628906 126.347656 148.277344 C 125.644531 148.203125 125.144531 148.164063 124.832031 148.164063 C 122.582031 148.164063 120.839844 149.019531 119.597656 150.71875 C 118.359375 152.421875 117.734375 155.03125 117.734375 158.554688 L 117.734375 160.53125 "/>
<path style=" stroke:none;fill-rule:evenodd;fill:rgb(0%,44.699097%,71.398926%);fill-opacity:1;" d="M 165.777344 152.929688 L 165.777344 173.34375 C 165.777344 175.558594 165.050781 176.660156 163.601563 176.660156 C 162.265625 176.660156 161.539063 175.980469 161.425781 174.617188 L 161.425781 173.71875 L 161.199219 173.953125 L 161.019531 174.132813 L 160.730469 174.363281 L 160.328125 174.664063 L 159.859375 175.015625 L 159.394531 175.308594 C 157.734375 176.214844 155.804688 176.660156 153.597656 176.660156 C 153.207031 176.660156 152.902344 176.660156 152.671875 176.660156 C 152.398438 176.660156 152.203125 176.660156 152.089844 176.660156 C 149.691406 176.394531 147.710938 175.625 146.140625 174.363281 C 144.578125 173.101563 143.558594 171.484375 143.097656 169.511719 C 142.824219 168.226563 142.6875 167.179688 142.6875 166.367188 C 142.6875 163.496094 143.75 161.238281 145.871094 159.589844 C 147.988281 157.941406 150.980469 157.121094 154.835938 157.121094 L 160.503906 157.121094 C 161.113281 157.003906 161.425781 156.609375 161.425781 155.945313 L 161.425781 154.117188 C 161.425781 150.085938 159.449219 148.066406 155.488281 148.066406 C 155.179688 148.066406 154.855469 148.085938 154.507813 148.125 C 154.160156 148.164063 153.890625 148.179688 153.699219 148.179688 C 152.589844 148.332031 151.695313 148.625 151.019531 149.054688 C 150.347656 149.476563 149.53125 150.285156 148.566406 151.484375 L 148.164063 152.003906 C 147.859375 152.394531 147.378906 152.664063 146.726563 152.816406 L 145.742188 152.816406 C 144.632813 152.507813 144.074219 151.753906 144.074219 150.554688 C 144.074219 150.171875 144.203125 149.707031 144.476563 149.167969 C 144.933594 148.277344 145.816406 147.332031 147.125 146.339844 C 148.617188 145.179688 150.519531 144.433594 152.820313 144.089844 C 153.589844 143.972656 154.324219 143.914063 155.011719 143.914063 C 155.777344 143.914063 156.507813 143.972656 157.195313 144.089844 C 160.113281 144.554688 162.273438 145.539063 163.675781 147.027344 C 165.078125 148.523438 165.777344 150.484375 165.777344 152.929688 Z M 161.3125 160.96875 L 154.996094 160.96875 C 152.296875 160.96875 150.355469 161.4375 149.175781 162.382813 C 148.003906 163.324219 147.414063 164.777344 147.414063 166.742188 C 147.414063 170.078125 149.285156 171.984375 153.027344 172.453125 C 153.300781 172.492188 153.707031 172.511719 154.246094 172.511719 C 154.785156 172.511719 155.1875 172.472656 155.460938 172.398438 C 159.441406 171.726563 161.425781 169.277344 161.425781 165.03125 L 161.425781 161.675781 L 161.3125 160.96875 "/>
</g>
</svg>
